<svg width="25" height="25" viewBox="0 0 30 30" fill="none" xmlns="http://www.w3.org/2000/svg">
    <path d="M26.25 1.875C27.2855 1.875 28.125 2.71447 28.125 3.75V26.25C28.125 27.2855 27.2855 28.125 26.25 28.125H3.75C2.71447 28.125 1.875 27.2855 1.875 26.25V3.75C1.875 2.71447 2.71447 1.875 3.75 1.875H26.25ZM3.75 0C1.67893 0 0 1.67893 0 3.75V26.25C0 28.3211 1.67893 30 3.75 30H26.25C28.3211 30 30 28.3211 30 26.25V3.75C30 1.67893 28.3211 0 26.25 0H3.75Z" fill="#0D6EFD"/>
    <path d="M19.1341 23.3552C19.4708 23.204 19.6875 22.8692 19.6875 22.5V7.49998C19.6875 7.1308 19.4708 6.796 19.1341 6.64476C18.7973 6.49352 18.4031 6.55402 18.1272 6.79929L9.68966 14.2993C9.48951 14.4772 9.375 14.7322 9.375 15C9.375 15.2678 9.48951 15.5228 9.68966 15.7007L18.1272 23.2007C18.4031 23.446 18.7973 23.5064 19.1341 23.3552Z" fill="#0D6EFD"/>
</svg>
