<svg xmlns="http://www.w3.org/2000/svg" width="25" height="25" viewBox="0 0 60 60" fill="none">
    <g clip-path="url(#clip0_73_17)">
        <rect width="60" height="60" rx="10" fill="#0C6DFC"/>
        <path opacity="0.949" fill-rule="evenodd" clip-rule="evenodd" d="M35.5 12.5C36.8221 12.33 37.9887 12.6634 39 13.5C39.6667 24.1667 39.6667 34.8333 39 45.5C37.1316 46.6719 35.2983 46.5053 33.5 45C27.9322 40.0543 22.5988 34.8877 17.5 29.5C23.5204 23.8117 29.5204 18.1451 35.5 12.5Z" fill="white"/>
        <path opacity="0.947" fill-rule="evenodd" clip-rule="evenodd" d="M3.5 -0.5C20.8333 -0.5 38.1667 -0.5 55.5 -0.5C57.1667 0.5 58.5 1.83333 59.5 3.5C59.5 20.8333 59.5 38.1667 59.5 55.5C58.5 57.1667 57.1667 58.5 55.5 59.5C38.1667 59.5 20.8333 59.5 3.5 59.5C1.83333 58.5 0.5 57.1667 -0.5 55.5C-0.5 38.1667 -0.5 20.8333 -0.5 3.5C0.5 1.83333 1.83333 0.5 3.5 -0.5ZM5.5 3.5C21.5035 3.33341 37.5035 3.50007 53.5 4C54 4.5 54.5 5 55 5.5C55.6667 21.5 55.6667 37.5 55 53.5C54.5 54 54 54.5 53.5 55C37.5 55.6667 21.5 55.6667 5.5 55C5 54.5 4.5 54 4 53.5C3.33333 37.5 3.33333 21.5 4 5.5C4.71719 4.9558 5.21719 4.28913 5.5 3.5Z" fill="#0C6DFC"/>
    </g>
    <defs>
        <clipPath id="clip0_73_17">
            <rect width="60" height="60" rx="10" fill="white"/>
        </clipPath>
    </defs>
</svg>