<svg width="25" height="25" viewBox="0 0 60 60" fill="none" xmlns="http://www.w3.org/2000/svg">
    <g clip-path="url(#clip0_73_7)">
        <rect width="60" height="60" rx="10" fill="#0C6DFC"/>
        <path opacity="0.926" fill-rule="evenodd" clip-rule="evenodd" d="M20.5 12.5C22.3084 12.4914 23.9751 12.9914 25.5 14C31.0678 18.9457 36.4012 24.1123 41.5 29.5C36.4012 34.8877 31.0678 40.0543 25.5 45C23.7017 46.5053 21.8684 46.6719 20 45.5C19.1909 34.4236 19.3575 23.4236 20.5 12.5Z" fill="white"/>
        <path opacity="0.947" fill-rule="evenodd" clip-rule="evenodd" d="M1.31229 1.18819C2.60378 -0.0834196 4.4574 -0.5 6.26983 -0.5C21.7566 -0.5 37.2434 -0.5 52.7302 -0.5C54.5426 -0.5 56.3962 -0.083435 57.6877 1.18815C57.7294 1.22921 57.7708 1.27059 57.8118 1.31229C59.0834 2.60378 59.5 4.4574 59.5 6.26983C59.5 21.7566 59.5 37.2434 59.5 52.7302C59.5 54.5426 59.0834 56.3962 57.8119 57.6877C57.7708 57.7294 57.7294 57.7708 57.6877 57.8119C56.3962 59.0834 54.5426 59.5 52.7302 59.5C37.2434 59.5 21.7566 59.5 6.26984 59.5C4.4574 59.5 2.60378 59.0834 1.31229 57.8118C1.27059 57.7708 1.22921 57.7294 1.18815 57.6877C-0.0834349 56.3962 -0.5 54.5426 -0.5 52.7302C-0.5 37.2434 -0.5 21.7566 -0.5 6.26984C-0.5 4.4574 -0.0834193 2.60378 1.18819 1.31229C1.22923 1.2706 1.2706 1.22923 1.31229 1.18819ZM4.762 4.78152C5.34801 4.08621 6.10361 3.49352 7.01289 3.48524C22.1556 3.34749 37.2953 3.5081 52.4317 3.96711C53.118 3.98792 53.7703 4.27025 54.2557 4.75573C54.7344 5.23435 55.0159 5.87536 55.0429 6.5517C55.6523 21.8479 55.6524 37.144 55.0432 52.4402C55.016 53.1217 54.7323 53.7677 54.25 54.25C53.7677 54.7323 53.1217 55.016 52.4402 55.0432C37.1467 55.6523 21.8533 55.6523 6.55979 55.0432C5.87825 55.016 5.23231 54.7323 4.75 54.25C4.26769 53.7677 3.98396 53.1217 3.95682 52.4402C3.34723 37.1343 3.34772 21.8283 3.95831 6.5224C3.98414 5.87488 4.34437 5.27704 4.762 4.78152Z" fill="#0C6DFC"/>
    </g>
    <defs>
        <clipPath id="clip0_73_7">
            <rect width="60" height="60" rx="10" fill="white"/>
        </clipPath>
    </defs>
</svg>
