<svg width="25" height="25" viewBox="0 0 30 30" fill="none" xmlns="http://www.w3.org/2000/svg">
    <path d="M26.25 1.875C27.2855 1.875 28.125 2.71447 28.125 3.75V26.25C28.125 27.2855 27.2855 28.125 26.25 28.125H3.75C2.71447 28.125 1.875 27.2855 1.875 26.25V3.75C1.875 2.71447 2.71447 1.875 3.75 1.875H26.25ZM3.75 0C1.67893 0 0 1.67893 0 3.75V26.25C0 28.3211 1.67893 30 3.75 30H26.25C28.3211 30 30 28.3211 30 26.25V3.75C30 1.67893 28.3211 0 26.25 0H3.75Z" fill="#0D6EFD"/>
    <path d="M10.8659 23.3552C10.5292 23.204 10.3125 22.8692 10.3125 22.5V7.49998C10.3125 7.1308 10.5292 6.796 10.8659 6.64476C11.2027 6.49352 11.5969 6.55402 11.8728 6.79929L20.3103 14.2993C20.5105 14.4772 20.625 14.7322 20.625 15C20.625 15.2678 20.5105 15.5228 20.3103 15.7007L11.8728 23.2007C11.5969 23.446 11.2027 23.5064 10.8659 23.3552Z" fill="#0D6EFD"/>
</svg>
