<svg xmlns="http://www.w3.org/2000/svg" width="80" height="80" fill="none" viewBox="0 0 80 80">
    <path fill="#3E3E3E" d="M55 37.5a2.5 2.5 0 0 1 2.5-2.5h5a2.5 2.5 0 0 1 2.5 2.5v5a2.5 2.5 0 0 1-2.5 2.5h-5a2.5 2.5 0 0 1-2.5-2.5v-5Z"/>
    <path fill="#3E3E3E" d="M17.5 0A2.5 2.5 0 0 1 20 2.5V5h40V2.5a2.5 2.5 0 0 1 5 0V5h5c5.523 0 10 4.477 10 10v55c0 5.523-4.477 10-10 10H10C4.477 80 0 75.523 0 70V15C0 9.477 4.477 5 10 5h5V2.5A2.5 2.5 0 0 1 17.5 0ZM10 10a5 5 0 0 0-5 5v55a5 5 0 0 0 5 5h60a5 5 0 0 0 5-5V15a5 5 0 0 0-5-5H10Z"/>
    <path fill="#3E3E3E" d="M12.5 20a2.5 2.5 0 0 1 2.5-2.5h50a2.5 2.5 0 0 1 2.5 2.5v5a2.5 2.5 0 0 1-2.5 2.5H15a2.5 2.5 0 0 1-2.5-2.5v-5Z"/>
</svg>