<svg xmlns="http://www.w3.org/2000/svg" width="80" height="80" fill="none" viewBox="0 0 80 80">
    <path fill="#3E3E3E" fill-rule="evenodd" d="M40 20a2.5 2.5 0 0 1 2.5 2.5v3.17l2.745-1.585a2.5 2.5 0 0 1 2.5 4.33L45 30l2.745 1.585a2.5 2.5 0 0 1-2.5 4.33L42.5 34.33v3.17a2.5 2.5 0 0 1-5 0v-3.17l-2.745 1.585a2.5 2.5 0 0 1-2.5-4.33L35 30l-2.745-1.585a2.5 2.5 0 0 1 2.5-4.33L37.5 25.67V22.5A2.5 2.5 0 0 1 40 20ZM25 47.5a2.5 2.5 0 0 1 2.5-2.5h25a2.5 2.5 0 0 1 0 5h-25a2.5 2.5 0 0 1-2.5-2.5Zm0 10a2.5 2.5 0 0 1 2.5-2.5h25a2.5 2.5 0 0 1 0 5h-25a2.5 2.5 0 0 1-2.5-2.5Z" clip-rule="evenodd"/>
    <path fill="#3E3E3E" d="M15 0h50c5.523 0 10 4.477 10 10v60c0 5.523-4.477 10-10 10H15C9.477 80 5 75.523 5 70v-5h5v5a5 5 0 0 0 5 5h50a5 5 0 0 0 5-5V10a5 5 0 0 0-5-5H15a5 5 0 0 0-5 5v5H5v-5C5 4.477 9.477 0 15 0Z"/>
    <path fill="#3E3E3E" d="M5 25v-2.5a2.5 2.5 0 0 1 5 0V25h2.5a2.5 2.5 0 0 1 0 5h-10a2.5 2.5 0 0 1 0-5H5ZM5 40v-2.5a2.5 2.5 0 0 1 5 0V40h2.5a2.5 2.5 0 0 1 0 5h-10a2.5 2.5 0 0 1 0-5H5ZM5 55v-2.5a2.5 2.5 0 0 1 5 0V55h2.5a2.5 2.5 0 0 1 0 5h-10a2.5 2.5 0 0 1 0-5H5Z"/>
</svg>