<?xml version="1.0" encoding="utf-8"?>
<!-- Generator: Adobe Illustrator 25.2.3, SVG Export Plug-In . SVG Version: 6.00 Build 0)  -->
<svg version="1.1" id="Layer_1" xmlns="http://www.w3.org/2000/svg" xmlns:xlink="http://www.w3.org/1999/xlink" x="0px" y="0px"
	 viewBox="0 0 16 16" style="enable-background:new 0 0 16 16;" xml:space="preserve">
<style type="text/css">
	.st0{fill-rule:evenodd;clip-rule:evenodd;fill:#0D6EFD;}
	.st1{fill-rule:evenodd;clip-rule:evenodd;fill:#FFFFFF;}
</style>
<path class="st0" d="M6,3.5C6,3.2,6.2,3,6.5,3h8C14.8,3,15,3.2,15,3.5v9c0,0.3-0.2,0.5-0.5,0.5h-8C6.2,13,6,12.8,6,12.5v-2
	C6,10.2,5.8,10,5.5,10S5,10.2,5,10.5v2C5,13.3,5.7,14,6.5,14h8c0.8,0,1.5-0.7,1.5-1.5v-9C16,2.7,15.3,2,14.5,2h-8C5.7,2,5,2.7,5,3.5
	v2C5,5.8,5.2,6,5.5,6S6,5.8,6,5.5V3.5z"/>
<rect x="5" y="4.2" class="st0" width="10" height="8.1"/>
<rect x="5.5" y="2.8" class="st0" width="10" height="10.4"/>
<path class="st1" d="M13.8,8.4c0.2-0.2,0.2-0.5,0-0.7l0,0l-3-3c-0.2-0.2-0.5-0.2-0.7,0S9.9,5.2,10,5.4l2.1,2.1H3.4
	C3.1,7.5,2.9,7.7,2.9,8s0.2,0.5,0.5,0.5h8.8l-2.1,2.1c-0.2,0.2-0.2,0.5,0,0.7s0.5,0.2,0.7,0L13.8,8.4z"/>
</svg>
