<svg xmlns="http://www.w3.org/2000/svg" width="20" height="20" fill="none" viewBox="0 0 24 24">
    <path fill="#0D6EFD"
          d="M6.502 6.975a5.525 5.525 0 0 1 10.995 0l.287 2.866c.018.175.026.262.037.348a8 8 0 0 0 1.19 3.325l.192.291.861 1.292c.787 1.18 1.18 1.769 1.008 2.244-.033.09-.078.175-.135.252-.3.407-1.009.407-2.426.407H5.489c-1.417 0-2.126 0-2.426-.407a1 1 0 0 1-.134-.252c-.173-.475.22-1.065 1.006-2.244l.862-1.292.192-.291a8 8 0 0 0 1.19-3.325c.01-.086.02-.173.037-.348l.286-2.866Z"/>
    <path stroke="#0D6EFD" stroke-linecap="round" stroke-width="2"
          d="M10.068 20.63c.114.106.365.2.715.267.349.067.777.103 1.217.103.44 0 .868-.036 1.217-.103.35-.067.6-.161.715-.268"/>
</svg>