<svg xmlns="http://www.w3.org/2000/svg" width="80" height="80" fill="none" viewBox="0 0 90 90">
    <path fill="#3E3E3E" d="M61.875 33.75c0 9.32-7.555 16.875-16.875 16.875S28.125 43.07 28.125 33.75 35.68 16.875 45 16.875 61.875 24.43 61.875 33.75Z"/>
    <path fill="#3E3E3E" fill-rule="evenodd" d="M0 45C0 20.147 20.147 0 45 0s45 20.147 45 45-20.147 45-45 45S0 69.853 0 45ZM45 5.625C23.254 5.625 5.625 23.254 5.625 45a39.21 39.21 0 0 0 8.617 24.585c4-6.443 12.784-13.335 30.758-13.335 17.974 0 26.759 6.892 30.758 13.335A39.209 39.209 0 0 0 84.375 45C84.375 23.254 66.746 5.625 45 5.625Z" clip-rule="evenodd"/>
</svg>