<svg xmlns="http://www.w3.org/2000/svg" width="80" height="80" fill="none" viewBox="0 0 90 90">
    <path fill="#3E3E3E" d="M45 45c9.32 0 16.875-7.555 16.875-16.875S54.32 11.25 45 11.25s-16.875 7.555-16.875 16.875S35.68 45 45 45Zm11.25-16.875c0 6.213-5.037 11.25-11.25 11.25s-11.25-5.037-11.25-11.25 5.037-11.25 11.25-11.25 11.25 5.037 11.25 11.25ZM78.75 73.125c0 5.625-5.625 5.625-5.625 5.625h-56.25s-5.625 0-5.625-5.625 5.625-22.5 33.75-22.5 33.75 16.875 33.75 22.5Zm-5.625-.02c-.008-1.388-.865-5.546-4.68-9.362C64.774 60.074 57.875 56.25 45 56.25s-19.776 3.824-23.445 7.493c-3.815 3.816-4.672 7.974-4.68 9.362h56.25Z"/>
</svg>