<svg xmlns="http://www.w3.org/2000/svg" width="80" height="80" fill="none" viewBox="0 0 90 90">
    <path fill="#3E3E3E" fill-rule="evenodd" d="M45.391 67.317C48.655 65.749 71.25 54.159 71.25 33.75 71.25 19.253 59.498 7.5 45 7.5c-14.497 0-26.25 11.753-26.25 26.25 0 20.409 22.595 31.999 25.859 33.567a.873.873 0 0 0 .782 0ZM45 45c6.213 0 11.25-5.037 11.25-11.25S51.213 22.5 45 22.5s-11.25 5.037-11.25 11.25S38.787 45 45 45Z" clip-rule="evenodd"/>
    <path fill="#fff" d="m45.391 67.317.26.54-.26-.54Zm-.782 0-.26.54.26-.54ZM70.65 33.75c0 9.968-5.517 17.82-11.515 23.41-5.993 5.585-12.397 8.844-14.004 9.616l.52 1.082c1.657-.797 8.183-4.117 14.303-9.82C66.07 52.337 71.85 44.19 71.85 33.75h-1.2ZM45 8.1c14.166 0 25.65 11.484 25.65 25.65h1.2C71.85 18.921 59.829 6.9 45 6.9v1.2ZM19.35 33.75C19.35 19.584 30.834 8.1 45 8.1V6.9c-14.829 0-26.85 12.021-26.85 26.85h1.2Zm25.519 33.026c-1.607-.772-8.011-4.03-14.005-9.616-5.997-5.59-11.514-13.441-11.514-23.41h-1.2c0 10.44 5.78 18.587 11.896 24.288 6.12 5.703 12.646 9.023 14.303 9.82l.52-1.082Zm.262 0a.276.276 0 0 1-.262 0l-.52 1.082c.421.202.88.202 1.302 0l-.52-1.082ZM55.65 33.75c0 5.882-4.768 10.65-10.65 10.65v1.2c6.545 0 11.85-5.305 11.85-11.85h-1.2ZM45 23.1c5.882 0 10.65 4.768 10.65 10.65h1.2c0-6.545-5.305-11.85-11.85-11.85v1.2ZM34.35 33.75c0-5.882 4.768-10.65 10.65-10.65v-1.2c-6.545 0-11.85 5.305-11.85 11.85h1.2ZM45 44.4c-5.882 0-10.65-4.768-10.65-10.65h-1.2c0 6.545 5.305 11.85 11.85 11.85v-1.2Z"/>
    <path stroke="#3E3E3E" stroke-linecap="round" stroke-width="5" d="M74.228 65.625c2.963 1.71 4.522 3.65 4.522 5.625s-1.56 3.915-4.522 5.625-7.222 3.13-12.353 4.118C56.745 81.98 50.925 82.5 45 82.5c-5.924 0-11.744-.52-16.875-1.507-5.13-.988-9.391-2.408-12.353-4.118-2.963-1.71-4.522-3.65-4.522-5.625s1.56-3.915 4.522-5.625"/>
</svg>