<svg xmlns="http://www.w3.org/2000/svg" xmlns:xlink="http://www.w3.org/1999/xlink" width="500" zoomAndPan="magnify" viewBox="0 0 375 374.999991" height="500" preserveAspectRatio="xMidYMid meet" version="1.0"><path fill="rgb(54.899597%, 92.158508%, 76.469421%)" d="M 105.019531 160.660156 C 100.601562 160.660156 96.179688 159.738281 91.761719 157.894531 C 74.457031 150.519531 66.355469 130.609375 73.71875 113.277344 C 93.050781 67.183594 137.789062 37.5 187.683594 37.5 C 237.578125 37.5 282.316406 67.183594 301.832031 113.277344 C 309.195312 130.609375 301.09375 150.707031 283.789062 157.894531 C 266.484375 165.269531 246.414062 157.160156 239.234375 139.828125 C 230.398438 119.175781 210.144531 105.71875 187.683594 105.71875 C 165.222656 105.71875 145.15625 119.175781 136.316406 139.828125 C 130.976562 152.734375 118.273438 160.660156 105.019531 160.660156 Z M 105.019531 160.660156 " fillOpacity="1" fill-rule="nonzero"/><path fill="rgb(52.549744%, 82.749939%, 92.158508%)" d="M 269.890625 214.273438 C 274.308594 214.273438 278.726562 215.195312 283.144531 217.039062 C 300.453125 224.410156 308.554688 244.324219 301.1875 261.65625 C 281.859375 307.75 237.117188 337.433594 187.226562 337.433594 C 137.332031 337.433594 92.59375 307.75 73.078125 261.65625 C 65.714844 244.324219 73.8125 224.226562 91.121094 217.039062 C 108.425781 209.664062 128.496094 217.773438 135.675781 235.105469 C 144.511719 255.753906 164.765625 269.214844 187.226562 269.214844 C 209.6875 269.214844 229.753906 255.753906 238.59375 235.105469 C 243.929688 222.199219 256.632812 214.273438 269.890625 214.273438 Z M 269.890625 214.273438 " fillOpacity="1" fill-rule="nonzero"/></svg>